<svg width="78" height="74" viewBox="0 0 78 74" fill="none" xmlns="http://www.w3.org/2000/svg">
<path d="M70.5 0.500008H30.5V13H40.5V18H8.00003C3.75003 18 0.500031 21.25 0.500031 25.5V53C0.500031 57.25 3.75003 60.5 8.00003 60.5H10.5V73.25L26.25 60.5H43V43H70.5C74.75 43 78 39.75 78 35.5V8.00001C78 3.75001 74.75 0.500008 70.5 0.500008ZM27.5 50.25L26.25 46.25H18.5L17 50.25H11L19.25 28H25.25L33.5 50.25H27.5ZM65.5 30.5V35.5C62.25 35.5 58.75 34.5 55.75 33C52.75 34.5 49.25 35.25 45.75 35.5L45.5 30.5C47.25 30.5 49 30.25 50.75 29.75C48.5 27.5 47 24.75 46.25 21.75H51.5C52.25 24 53.75 25.75 55.5 27.25C58.25 25 60 21.75 60.25 18H45.25V13H52.75V8.00001H57.75V13H66L66.25 15.5C66.5 20.75 64.5 26 60.75 29.75C62.5 30.25 64 30.5 65.5 30.5Z" fill="#F2C56D"/>
</svg>
