<svg width="80" height="80" viewBox="0 0 80 80" fill="none" xmlns="http://www.w3.org/2000/svg">
<path d="M3.51221 0.000872673C2.6488 -0.0156095 1.81017 0.257941 1.16383 0.766886C-0.261528 1.88563 -0.396317 3.81913 0.862735 5.08565C1.69691 5.9247 2.93318 6.25719 4.08744 6.06269L15.0677 17.1076L5.50464 24.6139L10.0966 29.2325C11.9362 25.628 14.3216 22.5721 17.2019 20.0137L18.5138 26.1182C23.2774 25.0572 27.9745 24.3364 32.6318 23.9467L28.0922 19.3803L20.7528 17.2746C24.0024 15.0985 27.7266 13.3998 31.8815 12.134L27.2892 7.51442L17.7267 15.0204L6.73084 3.95948C7.07067 2.97519 6.84798 1.86269 6.02462 1.03443C5.70947 0.716625 5.32332 0.460594 4.89075 0.282625C4.45817 0.104656 3.98863 0.00864546 3.51202 0.000703755L3.51221 0.000872673ZM76.4881 0.000872673C76.0116 0.00888352 75.5422 0.10491 75.1097 0.282846C74.6772 0.460782 74.2912 0.716734 73.976 1.03443C73.1525 1.86269 72.9292 2.97536 73.2692 3.95999L62.2734 15.0206L52.7109 7.51442L48.119 12.134C52.2735 13.3998 55.9975 15.0983 59.2477 17.2742L51.9083 19.3803L47.4934 23.8209C52.1845 24.1351 56.8655 24.7834 61.5643 25.754L62.798 20.0136C65.6785 22.5719 68.0643 25.6278 69.9039 29.2324L74.4953 24.6137L64.9324 17.1074L75.9126 6.06252C77.0669 6.25702 78.3034 5.92454 79.1375 5.08548C80.3962 3.81897 80.2614 1.88546 78.8364 0.766718C78.1901 0.257773 77.3515 -0.0157785 76.4881 0.000703755V0.000872673ZM41.0962 26.7397C33.5859 26.7231 26.0098 27.6212 18.1946 29.4547C17.8062 44.7122 24.7413 64.7696 40.6856 73.2977C56.119 65.01 63.923 44.6372 63.5718 29.4532C56.0254 27.6826 48.5911 26.7562 41.096 26.7397H41.0962ZM18.8509 52.6333L2.35985 69.2218L0.0437434 80L11.7951 76.6273L24.7976 63.548C22.3562 60.156 20.3845 56.458 18.8509 52.6333ZM62.1741 53.664C60.5244 57.4153 58.4575 61.0246 55.9651 64.3154L68.2049 76.6273L79.956 80L77.6399 69.2218L62.1739 53.6637L62.1741 53.664Z" fill="#9E6333" fill-opacity="0.8"/>
</svg>
