<svg width="115" height="45" viewBox="0 0 115 45" fill="none" xmlns="http://www.w3.org/2000/svg">
<rect width="115" height="45" rx="22.5" fill="black"/>
<path fill-rule="evenodd" clip-rule="evenodd" d="M50.7584 11.133C50.7584 11.301 50.802 11.445 50.8892 11.565C50.981 11.679 51.0912 11.736 51.2198 11.736C51.3483 11.736 51.4585 11.6775 51.5503 11.5605C51.6421 11.4435 51.688 11.301 51.688 11.133C51.688 10.959 51.6421 10.8135 51.5503 10.6965C51.4585 10.5795 51.3483 10.521 51.2198 10.521C51.0912 10.521 50.9822 10.581 50.8927 10.701C50.8031 10.821 50.7584 10.965 50.7584 11.133ZM41.4895 17.1H42.0335V13.977H39.6991V14.769H41.3931C41.3839 14.949 41.3507 15.129 41.2933 15.309C41.2359 15.489 41.151 15.6675 41.0385 15.8445C40.926 16.0215 40.7699 16.164 40.5702 16.272C40.3705 16.38 40.1421 16.434 39.885 16.434C39.4168 16.434 39.0162 16.2135 38.6834 15.7725C38.3506 15.3315 38.1841 14.709 38.1841 13.905C38.1841 13.107 38.354 12.489 38.6937 12.051C39.0334 11.613 39.4397 11.394 39.9126 11.394C40.289 11.394 40.6138 11.5215 40.887 11.7765C41.1601 12.0315 41.3518 12.39 41.462 12.852L42.0749 12.51C41.9325 11.928 41.6674 11.4615 41.2795 11.1105C40.8916 10.7595 40.4359 10.584 39.9126 10.584C39.4994 10.584 39.1126 10.707 38.7523 10.953C38.3919 11.199 38.0923 11.58 37.8536 12.096C37.6149 12.612 37.4955 13.215 37.4955 13.905C37.4955 14.595 37.6091 15.198 37.8364 15.714C38.0636 16.23 38.354 16.6125 38.7075 16.8615C39.061 17.1105 39.4466 17.235 39.8644 17.235C40.2454 17.235 40.5714 17.133 40.8422 16.929C41.1131 16.725 41.3082 16.482 41.4276 16.2L41.4895 17.1ZM45.2356 14.49H43.4246C43.4383 14.19 43.5278 13.9305 43.6931 13.7115C43.8584 13.4925 44.0696 13.383 44.3266 13.383C44.6113 13.383 44.8316 13.4865 44.9877 13.6935C45.1438 13.9005 45.2264 14.166 45.2356 14.49ZM45.332 15.615L45.8898 15.867C45.7934 16.269 45.6144 16.5975 45.3527 16.8525C45.091 17.1075 44.7743 17.235 44.4024 17.235C43.9387 17.235 43.5451 17.0265 43.2214 16.6095C42.8978 16.1925 42.7359 15.63 42.7359 14.922C42.7359 14.262 42.892 13.716 43.2042 13.284C43.5164 12.852 43.8882 12.636 44.3198 12.636C44.8202 12.636 45.2104 12.8415 45.4904 13.2525C45.7705 13.6635 45.9105 14.214 45.9105 14.904C45.9105 15.012 45.9059 15.102 45.8967 15.174H43.4039C43.4085 15.558 43.506 15.873 43.6966 16.119C43.8871 16.365 44.1224 16.488 44.4024 16.488C44.8753 16.488 45.1851 16.197 45.332 15.615ZM47.6045 12.771V11.403H47.0123V12.105C47.0123 12.303 46.9698 12.4635 46.8849 12.5865C46.7999 12.7095 46.6726 12.771 46.5027 12.771H46.3237V13.536H46.9572V15.912C46.9572 16.302 47.0398 16.605 47.2051 16.821C47.3704 17.037 47.5953 17.145 47.8799 17.145C48.0636 17.145 48.2105 17.118 48.3207 17.064V16.344C48.2472 16.368 48.1623 16.38 48.0659 16.38C47.9006 16.38 47.7824 16.332 47.7112 16.236C47.6401 16.14 47.6045 15.99 47.6045 15.786V13.536H48.3207V12.771H47.6045ZM51.5434 17.1H50.903V12.771H51.5434V17.1ZM53.5129 11.403V12.771H54.229V13.536H53.5129V15.786C53.5129 15.99 53.5485 16.14 53.6196 16.236C53.6908 16.332 53.809 16.38 53.9743 16.38C54.0707 16.38 54.1556 16.368 54.229 16.344V17.064C54.1189 17.118 53.972 17.145 53.7883 17.145C53.5037 17.145 53.2787 17.037 53.1135 16.821C52.9482 16.605 52.8656 16.302 52.8656 15.912V13.536H52.232V12.771H52.4111C52.5809 12.771 52.7083 12.7095 52.7933 12.5865C52.8782 12.4635 52.9207 12.303 52.9207 12.105V11.403H53.5129ZM58.2299 16.479C57.9407 16.479 57.6951 16.344 57.4931 16.074C57.2957 15.798 57.197 15.417 57.197 14.931C57.197 14.451 57.2969 14.0745 57.4966 13.8015C57.6963 13.5285 57.9407 13.392 58.2299 13.392C58.5192 13.392 58.7636 13.5285 58.9633 13.8015C59.163 14.0745 59.2629 14.451 59.2629 14.931C59.2629 15.417 59.163 15.7965 58.9633 16.0695C58.7636 16.3425 58.5192 16.479 58.2299 16.479ZM57.0111 13.293C57.3324 12.855 57.7387 12.636 58.2299 12.636C58.7212 12.636 59.1263 12.8535 59.4454 13.2885C59.7644 13.7235 59.924 14.271 59.924 14.931C59.924 15.597 59.7656 16.1475 59.4488 16.5825C59.132 17.0175 58.7257 17.235 58.2299 17.235C57.7341 17.235 57.3278 17.0175 57.0111 16.5825C56.6943 16.1475 56.5359 15.597 56.5359 14.931C56.5359 14.271 56.6943 13.725 57.0111 13.293ZM61.3976 17.1V14.598C61.3976 14.256 61.4653 13.9725 61.6007 13.7475C61.7362 13.5225 61.9255 13.41 62.1689 13.41C62.683 13.41 62.9401 13.773 62.9401 14.499V17.1H63.5874V14.355C63.5874 13.851 63.4853 13.44 63.281 13.122C63.0767 12.804 62.784 12.645 62.403 12.645C61.9439 12.645 61.6042 12.894 61.3838 13.392V12.771H60.7503V17.1H61.3976Z" fill="white"/>
<path fill-rule="evenodd" clip-rule="evenodd" d="M45.0525 27.2304V32.4H43.9837L43.8846 31.104C43.543 31.8528 42.7387 32.616 41.4937 32.616C39.4553 32.616 37.6484 30.6576 37.6484 27.288C37.6484 23.9328 39.5545 21.9744 41.5818 21.9744C43.4769 21.9744 44.6889 23.4 45.1075 25.0848L43.8625 25.704C43.5981 24.552 42.8268 23.5728 41.5818 23.5728C40.3147 23.5728 38.9926 24.7536 38.9926 27.288C38.9926 29.7792 40.2266 31.032 41.5708 31.032C43.1463 31.032 43.7413 29.6208 43.8074 28.7424H41.2292V27.2304H45.0525ZM47.3993 28.8864C47.3993 30.3408 48.1154 31.1184 48.8977 31.1184C49.691 31.1184 50.3962 30.3552 50.3962 28.8864C50.3962 27.432 49.691 26.6832 48.8977 26.6832C48.1154 26.6832 47.3993 27.432 47.3993 28.8864ZM48.8977 25.1712C47.3001 25.1712 46.1212 26.7408 46.1212 28.8864C46.1212 31.0464 47.3001 32.616 48.8977 32.616C50.5063 32.616 51.6853 31.0464 51.6853 28.8864C51.6853 26.7408 50.5063 25.1712 48.8977 25.1712ZM53.7787 28.8864C53.7787 30.3408 54.4949 31.1184 55.2771 31.1184C56.0704 31.1184 56.7756 30.3552 56.7756 28.8864C56.7756 27.432 56.0704 26.6832 55.2771 26.6832C54.4949 26.6832 53.7787 27.432 53.7787 28.8864ZM55.2771 25.1712C53.6795 25.1712 52.5006 26.7408 52.5006 28.8864C52.5006 31.0464 53.6795 32.616 55.2771 32.616C56.8857 32.616 58.0647 31.0464 58.0647 28.8864C58.0647 26.7408 56.8857 25.1712 55.2771 25.1712ZM61.4692 35.352C60.0479 35.352 59.0563 34.2 58.9131 32.7888L60.092 32.3856C60.1801 33.2496 60.698 33.8976 61.4362 33.8976C62.4498 33.8976 62.9566 33.2208 62.9566 31.7952V31.0608C62.7253 31.608 62.1854 32.0832 61.4031 32.0832C59.9708 32.0832 58.9241 30.6432 58.9241 28.6704C58.9241 26.7984 59.9267 25.2576 61.4031 25.2576C62.2405 25.2576 62.7583 25.704 62.9897 26.28V25.3872H64.2237V31.7376C64.2237 33.6096 63.4855 35.352 61.4692 35.352ZM61.6125 30.6576C60.7751 30.6576 60.2132 29.8944 60.2132 28.6704C60.2132 27.4752 60.7971 26.6976 61.6125 26.6976C62.4058 26.6976 62.9897 27.4752 62.9897 28.6704C62.9897 29.88 62.4278 30.6576 61.6125 30.6576ZM67.0663 21.9744V32.4H65.7883V21.9744H67.0663ZM69.6115 28.1232C69.6556 27.3744 70.1183 26.568 70.9226 26.568C71.8041 26.568 72.2227 27.3024 72.2448 28.1232H69.6115ZM71.0438 31.176C71.8151 31.176 72.2117 30.6432 72.388 29.952L73.4678 30.3984C73.1813 31.6224 72.3329 32.616 71.0438 32.616C69.5895 32.616 68.3004 31.2336 68.3004 28.8576C68.3004 26.64 69.5564 25.1712 70.9116 25.1712C72.5643 25.1712 73.5339 26.5968 73.5339 28.8144C73.5339 29.088 73.5119 29.3184 73.5008 29.3472H69.5784C69.6115 30.4128 70.2505 31.176 71.0438 31.176ZM78.9217 26.8848V23.7168H80.2989C81.1363 23.7168 81.6431 24.336 81.6431 25.3152C81.6431 26.28 81.1363 26.8848 80.2989 26.8848H78.9217ZM82.9873 25.3008C82.9873 27.1008 81.9957 28.4112 80.4972 28.4112H78.9217V32.4H77.5995V22.1904H80.4972C81.9957 22.1904 82.9873 23.5152 82.9873 25.3008ZM85.4002 32.4V21.9744H84.1222V32.4H85.4002ZM88.5404 32.616C87.4165 32.616 86.7224 31.608 86.7224 30.4992C86.7224 29.2464 87.4275 28.5552 88.342 28.3824L89.7193 28.1088C90.0278 28.0512 90.1159 27.8496 90.1159 27.6048C90.1159 27.0144 89.8074 26.5392 89.1023 26.5392C88.4302 26.5392 88.0556 27.1008 88.0005 27.8064L86.8326 27.4608C86.9317 26.2512 87.7691 25.1712 89.0913 25.1712C90.744 25.1712 91.372 26.3952 91.372 27.792L91.3731 31.4307C91.378 31.7787 91.3989 32.0496 91.416 32.2176L91.4381 32.4H90.2481C90.2371 32.3568 90.1931 32.0688 90.1931 31.5072C89.9396 32.04 89.4108 32.616 88.5404 32.616ZM88.7828 31.3056C88.2759 31.3056 88.0005 30.8736 88.0005 30.3984C88.0005 29.8224 88.32 29.5344 88.7167 29.448L90.1159 29.1744V29.4912C90.1159 30.8592 89.4989 31.3056 88.7828 31.3056ZM93.1789 35.2368H94.5452L97.9607 25.3872H96.6055L95.1622 29.8224L93.6196 25.3872H92.1763L94.468 31.5648L93.1789 35.2368Z" fill="white"/>
<path d="M13.8384 12.7166C13.7997 12.8971 13.7725 13.0908 13.7725 13.3129V31.596C13.7725 31.815 13.7986 32.0077 13.8366 32.1859L21.6369 22.4642L13.8384 12.7166Z" fill="#48A0DC"/>
<path d="M15.574 12.0065C15.2109 11.7152 14.853 11.6423 14.5507 11.7429L22.3836 21.5338L24.6813 18.6708L15.574 12.0065Z" fill="#88C057"/>
<path d="M28.0388 21.1278L25.6077 19.3488L23.118 22.4518L25.6544 25.6229L28.0201 23.9142C29.1738 23.0492 28.7524 21.6553 28.0388 21.1278Z" fill="#FFCC66"/>
<path d="M22.3711 23.3819L14.5284 33.1552C14.8352 33.2683 15.2014 33.2011 15.5737 32.9024L24.7095 26.3046L22.3711 23.3819Z" fill="#ED7161"/>
</svg>
